<?xml version="1.0" encoding="utf-8"?>
<!-- Generator: Adobe Illustrator 24.0.0, SVG Export Plug-In . SVG Version: 6.00 Build 0)  -->
<svg version="1.1" id="Layer_1" xmlns="http://www.w3.org/2000/svg" xmlns:xlink="http://www.w3.org/1999/xlink" x="0px" y="0px"
	 viewBox="0 0 40 40" style="enable-background:new 0 0 40 40;" xml:space="preserve">
<title>rap_pear</title>
<path d="M20.4,4.3V4h-0.7v0.2c-3.3,0.1-6.2,1.5-8.2,3.8l-0.1,0.1c-1.8,2-2.9,4.6-2.9,7.5c0,6,8.6,20.4,11.4,20.4
	c2.9,0,11.4-14.2,11.4-20.4C31.2,9.5,26.4,4.6,20.4,4.3L20.4,4.3z M19.9,27.4c-0.9-0.1-5.6-7.2-5.6-10.4c0-0.4,0-0.8,0.1-1.2l0.1,0
	v-0.3c0.7-2.4,2.8-4.1,5.4-4.1c3.1,0,5.6,2.5,5.6,5.6C25.4,20.3,20.8,27.4,19.9,27.4L19.9,27.4z M26.2,16.9c0-0.4,0-0.8-0.1-1.2
	l4.4,0c-0.1,2.1-1,5-2.4,7.9l-2.9-2.9C25.7,19.7,26,18.4,26.2,16.9L26.2,16.9z M25.9,15.1c-0.4-1.2-1-2.1-1.9-2.9l3.7-3.7
	c1.6,1.8,2.6,4.1,2.8,6.6L25.9,15.1L25.9,15.1z M27.2,7.9l-3.8,3.8c-0.9-0.6-2.1-1-3.4-1.1h0.4V5C23,5.1,25.4,6.2,27.2,7.9L27.2,7.9
	z M19.7,10.6c-1.3,0-2.6,0.5-3.5,1.2l-3.8-3.8c1.9-1.9,4.4-3,7.3-3.1L19.7,10.6L19.7,10.6L19.7,10.6z M11.9,8.6l3.7,3.7
	C14.8,13,14.2,14,13.8,15l-4.5,0v0.7h4.3c-0.1,0.3-0.1,0.7-0.1,1.1c0.1,1.4,0.4,2.6,1,3.8l-3,2.9c-1.4-2.9-2.4-5.8-2.4-7.9
	c0,0,0,0,0,0C9.2,12.9,10.2,10.5,11.9,8.6L11.9,8.6z M19.9,35.3c-1.1,0-5.2-5.4-7.9-11.1l2.9-2.9c1.4,3.1,3.7,6.4,4.8,6.7V35h0.7v-7
	c1.2-0.7,3.1-3.6,4.4-6.4l2.9,2.9C25.1,29.9,21.3,35.3,19.9,35.3L19.9,35.3z"/>
</svg>
