<?xml version="1.0" encoding="utf-8"?>
<!-- Generator: Adobe Illustrator 24.0.0, SVG Export Plug-In . SVG Version: 6.00 Build 0)  -->
<svg version="1.1" id="Layer_1" xmlns="http://www.w3.org/2000/svg" xmlns:xlink="http://www.w3.org/1999/xlink" x="0px" y="0px"
	 viewBox="0 0 40 40" style="enable-background:new 0 0 40 40;" xml:space="preserve">
<title>rap_marquise</title>
<path d="M28.5,19.1L28.5,19.1c-0.2-2.8-1-5.4-2.2-7.7l0.1-0.2l-0.3-0.2c-1.5-2.7-3.4-4.9-5.8-6.7L20.2,4l-0.5,0.1L19.3,4l-0.1,0.5
	c-2.5,1.8-4.5,4-5.9,6.6l-0.2,0.2l0.1,0.2c-1.2,2.2-1.9,4.8-2,7.5L11,19.2l0.1,0.1c0,0.2,0,0.4,0,0.7c0,10.4,8.3,15.9,8.4,15.9
	l0.3,0.2l0.2-0.1c0.1-0.1,8.6-5.3,8.6-15.7C28.5,19.9,28.5,19.5,28.5,19.1L28.5,19.1z M27.7,18.2l-2.4-2.7l0.8-3
	C26.9,14.2,27.5,16.1,27.7,18.2L27.7,18.2z M19.8,4.9l0.9,3.2l-0.9,1l-0.9-1L19.8,4.9L19.8,4.9z M25.7,11.7l-0.9,3.3l-2.4-2.8
	L21.6,9L25.7,11.7L25.7,11.7z M19.7,28.7l-2.2-2.7l-1.8-7l1.8-6.5l2.2-2.5l2.1,2.3l1.9,7l-1.7,6.6L19.7,28.7z M21.5,27.5l-0.7,2.6
	l-0.7-0.9L21.5,27.5z M19.2,29.2l-0.7,0.9l-0.7-2.5L19.2,29.2z M18,11.1l0.7-2.3l0.7,0.8L18,11.1z M20.2,9.6l0.7-0.8l0.6,2.2
	L20.2,9.6z M22.8,13.6l1.8,2.1L24,18.1L22.8,13.6z M17,12.3l-2.3,2.7l-0.8-3.3L17.9,9L17,12.3z M16.6,13.8l-1.1,4l-0.5-2.1
	L16.6,13.8z M15.1,19.1L14.2,22l-2.3-2.9l2.5-2.8L15.1,19.1z M15.4,20.4l1.1,4.5l-1.8-2.2L15.4,20.4z M16.9,26.3l0.9,3.6l-4.3-3
	l1-3.5L16.9,26.3z M17.9,30.8l-1.3,1.5c-1.2-1.3-2.2-2.8-3-4.4L17.9,30.8z M19.7,29.7l1,1.2l-0.9,3.6l-0.9-3.7L19.7,29.7z
	 M21.5,30.1l1-3.8l2.3-2.7l1.1,4L21.5,30.1z M25.7,28.4c-0.8,1.6-1.8,2.9-3,4.1l-1.3-1.6L25.7,28.4z M22.9,24.8l1.1-4.1l0.6,2.1
	L22.9,24.8z M24.4,19.4l0.8-3.1l2.5,2.8l-2.6,3.1L24.4,19.4z M21.5,8.2l0.9-1.1c0.9,1,1.7,2,2.5,3.2L21.5,8.2z M22,6.6l-0.8,0.9
	l-0.6-2.1C21,5.8,21.4,6.1,22,6.6L22,6.6z M18.3,7.5l-0.7-0.8c0.5-0.5,0.9-0.8,1.3-1.1L18.3,7.5z M17.1,7.1l0.9,1l-3.6,2.3
	C15.3,9.2,16.1,8.1,17.1,7.1L17.1,7.1z M13.4,12.5l0.8,3.1l-2.4,2.7C12,16.1,12.6,14.1,13.4,12.5L13.4,12.5z M14,22.8l-1,3.7
	c-0.8-1.9-1.2-4.1-1.2-6.4L14,22.8z M17.1,32.9l1.1-1.4l0.8,3.2C18.3,34.1,17.7,33.5,17.1,32.9L17.1,32.9z M20.3,34.8l0.9-3.2
	l1.2,1.5C21.7,33.7,21,34.2,20.3,34.8L20.3,34.8z M27.8,20.1C27.8,20.2,27.8,20.2,27.8,20.1c0,2.5-0.5,4.9-1.5,7.1l-1-4.2l2.5-3
	C27.8,20.1,27.8,20.1,27.8,20.1L27.8,20.1z"/>
</svg>
