<?xml version="1.0" encoding="utf-8"?>
<!-- Generator: Adobe Illustrator 24.0.0, SVG Export Plug-In . SVG Version: 6.00 Build 0)  -->
<svg version="1.1" id="Layer_1" xmlns="http://www.w3.org/2000/svg" xmlns:xlink="http://www.w3.org/1999/xlink" x="0px" y="0px"
	 viewBox="0 0 40 40" style="enable-background:new 0 0 40 40;" xml:space="preserve">
<title>rap_princess</title>
<path d="M4,4v32h32V4H4z M29.4,14.1l5.6-5.6v23.2L29.4,26c0,0,0-0.1,0-0.1V14.1C29.4,14.2,29.4,14.1,29.4,14.1z M35.1,7.1L29.2,13
	c-0.4-1-1.2-1.8-2.1-2.1L32.9,5h2.2C35.1,5,35.1,7.1,35.1,7.1z M14.1,29.4h11.7l5.6,5.6H8.4L14.1,29.4L14.1,29.4L14.1,29.4z
	 M25.8,28.5H14.1c-1.4,0-2.6-1.2-2.6-2.6V14.2c0-1.4,1.2-2.6,2.6-2.6h11.7c1.4,0,2.6,1.2,2.6,2.6v11.7
	C28.5,27.3,27.3,28.5,25.8,28.5L25.8,28.5z M25.8,10.6H14L8.3,4.9h23.2L25.8,10.6L25.8,10.6L25.8,10.6z M7,4.9l5.9,5.9
	c-1,0.4-1.8,1.2-2.1,2.2L4.9,7.2V4.9H7L7,4.9z M10.6,25.9l-5.6,5.6v-23l5.6,5.6V25.9C10.6,25.9,10.6,25.9,10.6,25.9L10.6,25.9z
	 M4.9,32.9l5.9-5.9c0.4,1,1.1,1.8,2.1,2.2l-5.8,5.9H4.9L4.9,32.9L4.9,32.9z M32.8,35.1L27,29.2c1-0.3,1.8-1.1,2.2-2.1l5.9,5.9v2.1
	C35.1,35.1,32.8,35.1,32.8,35.1z"/>
</svg>
