<svg width="40" height="40" xmlns="http://www.w3.org/2000/svg">
 <title>rap_cushion_brilliant</title>

 <g>
  <title>background</title>
  <rect fill="none" id="canvas_background" height="602" width="802" y="-1" x="-1"/>
 </g>
 <g>
  <title>Layer 1</title>
  <path stroke="null" id="svg_1" d="m34.36834,15.13165c0,-5.853 -4.856,-11.18 -10.183,-11.18l-8.661,0c-5.309,0 -10.156,5.327 -10.156,11.18l0,10.265c0.039,5.084 3.739,9.291 8.591,10.12l0.478,0.163l0,-0.091c0.315,0.04 0.68,0.063 1.05,0.063l3.906,0l0.48,0.29l0.408,-0.29l3.914,0c2.91,-0.062 5.518,-1.308 7.37,-3.274l0.177,-0.005l0,-0.172c1.629,-1.768 2.628,-4.139 2.628,-6.743c0,-0.021 0,-0.043 0,-0.064l0,-10.262l-0.002,0zm-0.906,10.637l-1.576,-0.091l1.576,-4.186l0,3.905c0,0.136 0,0.263 0,0.371l0,0.001zm-13.735,8.951l-3.624,-2.401l4.077,-1.975l3.733,1.622l-3.905,2.718l-0.281,0l0,0.036zm11.017,-26.555c1.213,1.379 2.096,3.079 2.505,4.955l-2.505,0.608l0,-5.563zm-9.513,21.69l3.805,-1.812l-0.58,3.244l-3.225,-1.432zm-5.98,-20.884l3.561,1.694l-4.276,1.866l0.715,-3.56zm-4.077,9.314l-1.866,-3.787l4.005,-0.67l-1.595,5.599l-0.544,-1.142zm-2.047,7.71l2.591,-4.376l1.576,3.461l0.236,1.703l-4.43,-0.616l0,-0.172l0.027,0zm4.602,1.712l0.843,4.729l-5.146,-0.498l-0.245,-4.847l4.548,0.616zm0.979,0.308l4.358,1.894l-3.697,1.812l-0.661,-3.706zm-0.19,-1.069l-0.371,-2.084l-1.894,-4.195l0.063,-0.109l2.002,-6.958l5.554,-2.419l5.581,2.646l1.894,6.632l0.118,0.199l-1.866,4.113l-0.39,2.174l-5.065,2.446l-5.626,-2.445zm9.966,-17.784l0.707,3.552l-4.24,-2.011l3.533,-1.541zm5.49,5.653l0.426,0.091l-1.884,3.398l-0.489,1.123l-1.54,-5.345l3.352,0.689l0,0.072l0.135,-0.028zm-3.552,10.274l1.604,-3.479l2.464,4.159l-4.276,0.906l0.208,-1.586zm2.03,-4.476l0.906,-1.903l1.703,-3.062l2.02,4.303l-1.957,5.155l-2.672,-4.493zm1.386,-6.758l-3.624,-0.77l-0.906,-4.648l4.53,0l0,5.373l0,0.045zm-9.966,-3.624l-4.376,-2.075l4.24,-2.582l4.159,2.899l-4.023,1.758zm-6.342,2.718l-4.367,0.725l0.317,-5.155l5.019,-0.39l-0.969,4.82zm-3.189,5.798l0.906,1.939l-2.491,4.177l-2.075,-3.624l2.002,-5.871l1.658,3.379zm4.032,14.65l-0.489,1.259c-1.431,-0.299 -2.692,-0.88 -3.777,-1.685l4.266,0.426zm11.642,-5.816l4.729,-0.906l0,4.775l-5.436,-0.163l0.707,-3.706zm5.581,-12.947l0.118,-0.217l1.685,-0.353c0.038,0.307 0.061,0.666 0.063,1.029l0,3.501l-1.866,-3.96zm-1.423,-7.094l-4.657,0l0.906,-2.337c1.476,0.51 2.736,1.32 3.758,2.363l-0.007,-0.026zm-4.611,-2.564l-1.078,2.718l-4.095,-2.863l3.796,0c0.495,0.013 0.968,0.075 1.425,0.181l-0.048,-0.036zm-6.424,-0.154l-3.796,2.356l-0.988,-2.247c0.349,-0.066 0.753,-0.105 1.165,-0.109l3.627,0l-0.008,0zm-5.264,0.199l-0.399,0.172l0.843,1.93l-4.738,0.371c1.151,-1.152 2.604,-2.002 4.23,-2.423l0.064,-0.05zm-5.318,3.624l-0.281,4.621l-1.631,-0.362l-0.199,0.906l1.649,0.381l-1.812,5.364l0,-4.421c0.041,-2.445 0.894,-4.683 2.3,-6.464l-0.026,-0.025zm-2.283,13.59l1.957,3.533l-0.263,0.453l0.082,0.045l-1.576,0.371l0.208,0.906l1.604,-0.381l0.217,4.267c-1.379,-1.59 -2.22,-3.679 -2.22,-5.965c0,-0.024 0,-0.049 0,-0.073l0,-3.095l-0.009,-0.061zm9.25,12.449c-0.236,0 -0.471,0 -0.707,0l0.652,-1.667l2.591,1.73l-2.528,0l-0.008,-0.063zm6.025,0l3.189,-2.247l0.77,2.129c-0.395,0.07 -0.852,0.113 -1.318,0.118l-2.641,0zm4.856,-0.308l-0.806,-2.238l4.702,0.136c-1.075,0.981 -2.381,1.728 -3.827,2.148l-0.069,-0.046zm5.246,-7.774l1.712,0.072c-0.219,1.557 -0.805,2.946 -1.667,4.12l-0.045,-4.192z"/>
 </g>
</svg>