<?xml version="1.0" encoding="utf-8"?>
<!-- Generator: Adobe Illustrator 24.0.0, SVG Export Plug-In . SVG Version: 6.00 Build 0)  -->
<svg version="1.1" id="Layer_1" xmlns="http://www.w3.org/2000/svg" xmlns:xlink="http://www.w3.org/1999/xlink" x="0px" y="0px"
	 viewBox="0 0 40 40" style="enable-background:new 0 0 40 40;" xml:space="preserve">
<title>rap_round</title>
<path d="M20,4C11.2,4,4,11.2,4,20s7.2,16,16,16s16-7.2,16-16S28.8,4,20,4z M35,19.7h-6.4l-2.6-2.6v-2.8l4.7-4.7
	C33.3,12.3,35,15.8,35,19.7L35,19.7z M25.2,14.9v1.2l-1.2-1.2H25.2z M25.1,14h-2.2l-2.6-2.6V4.9c3.8,0.1,7.2,1.6,9.8,4L25.1,14
	L25.1,14z M19.5,11.3L16.8,14h-2.2L9.7,9c2.6-2.4,6-3.9,9.8-4.1L19.5,11.3L19.5,11.3z M15.9,14.9l-1.1,1.1v-1.1H15.9z M13.8,14.4
	v2.7l-2.7,2.7H4.9C5,15.9,6.6,12.4,9,9.7L13.8,14.4L13.8,14.4z M11.7,20.6l2.1,2.1v2.7L9,30.1c-2.3-2.6-3.8-5.9-4-9.5
	C5,20.6,11.7,20.6,11.7,20.6z M14.7,23.7l1.7,1.7h-1.7V23.7z M14.1,26.3h3.2l2.1,2.1V35c-3.8-0.1-7.3-1.7-9.9-4.2L14.1,26.3
	L14.1,26.3z M20.4,28.3l2-2h3.2l4.7,4.7c-2.6,2.5-6.1,4-9.9,4.1L20.4,28.3L20.4,28.3z M25.2,25.4h-1.8l1.8-1.8V25.4z M19.9,27.5
	l-7.6-7.6l2.1-2.1h0.4v-0.4l2.5-2.5h0.4v-0.4l2.4-2.4l2.4,2.4v0.3h0.3l2.6,2.6v0.3h0.3l2.1,2.1L19.9,27.5L19.9,27.5z M31,30.3
	l-4.8-4.8v-2.8l2-2H35C34.9,24.3,33.3,27.7,31,30.3L31,30.3z"/>
</svg>
