<svg width="40" height="40" xmlns="http://www.w3.org/2000/svg">
 <title>rap_asscher</title>

 <g>
  <title>background</title>
  <rect fill="none" id="canvas_background" height="602" width="802" y="-1" x="-1"/>
 </g>
 <g>
  <title>Layer 1</title>
  <path id="svg_1" d="m29.97125,3.50742l-20.308,0l-0.103,-0.122l-0.188,0.122l-0.375,0l-5.063,4.875l0,20.993l5.035,6.01l21.03,0l5.813,-5.991l0,-21.03l-5.841,-4.857zm-22.099,24.002l3,3.807l-1.875,2.681l-3.938,-4.688l2.813,-1.8zm3.235,-20.167l-3.31,3.141l-2.757,-1.875l4.21,-4.079l1.857,2.813zm18.752,-2.654l4.575,3.807l-2.653,1.875l-3.694,-2.888l1.772,-2.794zm-13.68,10.07l6.901,0l1.481,0.938l0,6.769l-1.547,1.669l-6.76,0l-1.069,-1.631l0,-6.854l0.994,-0.891zm0.122,10.313l6.741,0l1.219,1.875l-9.254,0l1.294,-1.875zm7.548,-0.468l1.369,-1.481l1.95,1.313l-2.044,2.138l-1.275,-1.97zm1.65,-2.429l0,-6.216l1.875,-1.331l0,8.804l-1.875,-1.257zm-0.272,-7.172l-1.36,-0.853l1.256,-1.988l2.016,1.481l-1.912,1.36zm-2.26,-1.182l-6.291,0l-1.275,-1.875l8.757,0l-1.191,1.875zm-7.313,0.16l-1.106,0.938l-2.006,-1.341l1.706,-1.594l1.406,1.997zm-1.397,1.875l0,6.404l-1.875,1.209l0,-8.832l1.875,1.219zm0.291,7.332l0.938,1.416l-1.35,1.969l-1.566,-2.1l1.978,-1.285zm-0.169,4.688l10.51,0l1.875,2.813l-14.326,0l1.941,-2.813zm11.251,-0.506l2.306,-2.41l3.094,2.072l-3.328,3.469l-2.072,-3.131zm2.681,-3.301l0,-10.098l2.813,-1.988l0,13.979l-2.813,-1.893zm-0.356,-10.998l-2.316,-1.706l1.969,-3.085l3.403,2.653l-3.056,2.138zm-3.197,-2.062l-9.995,0l-1.875,-2.813l13.689,0l-1.819,2.813zm-10.998,0.187l-2.016,1.875l-3.122,-2.063l2.916,-2.813l0.178,0l2.044,3.001zm-2.316,2.813l0,10.098l-2.813,1.81l0,-13.783l2.813,1.875zm0.319,10.998l1.8,2.41l-2.128,3.094l-2.813,-3.478l3.141,-2.026zm0,6.629l15.527,0l1.875,2.813l-19.305,0l1.903,-2.813zm16.427,-0.338l3.6,-3.75l2.71,1.819l-4.519,4.688l-1.791,-2.757zm3.844,-4.688l0,-15.292l2.813,-1.988l0,19.155l-2.813,-1.875zm-3.151,-22.146l-1.781,2.813l-14.889,0l-1.875,-2.813l18.611,0l-0.066,0zm-21.198,7.042l0,15.001l-2.813,1.81l0,-18.696l2.813,1.885z"/>
 </g>
</svg>