<svg width="40" height="40" xmlns="http://www.w3.org/2000/svg">
 <title>rap_cushion_mod</title>

 <g>
  <title>background</title>
  <rect fill="none" id="canvas_background" height="602" width="802" y="-1" x="-1"/>
 </g>
 <g>
  <title>Layer 1</title>
  <path id="svg_1" d="m25.78681,4.07521l0,0c-0.452,-0.107 -0.972,-0.171 -1.506,-0.174l-8.039,0c-4.571,0 -9.655,4.571 -9.655,10.789l0,10.057c0,5.742 4.69,11.163 9.655,11.163l8.027,0c4.699,0 8.823,-5.221 8.823,-11.163l0,-10.057c0.009,-5.23 -3.2,-9.701 -7.305,-10.615zm-0.585,1.252l1.499,4.965l-3.794,0l-1.938,-3.063l4.233,-1.902zm2.103,10.533l0.466,-4.471l3.749,2.112l-1.435,5.166l-2.78,-2.807zm-8.659,12.709l-2.203,-3.566l-2.167,-2.149l0.302,-3.154l-0.375,-3.749l1.975,-2.149l1.829,-2.624l4.398,0l1.737,2.743l2.213,2.249l-0.402,3.84l0.347,3.163l-2.075,2.222l-2.094,3.182l-3.474,0l-0.011,-0.008zm2.844,0.914l-1.189,1.774l-1.097,-1.765l2.286,0l0,-0.009zm-7.762,-0.914l0.439,-4.507l1.563,1.49l1.829,3.026l-3.84,0l0.009,-0.009zm-0.055,-8.823l-0.229,2.322l-2.523,-2.551l2.459,-2.679l0.293,2.908zm0.055,-8.512l3.145,0l-1.408,2.048l-1.381,1.481l-0.356,-3.529zm4.882,-0.915l1.691,-2.459l1.536,2.432l-3.227,0l0,0.027zm8.228,0.915l-0.393,3.822l-1.573,-1.637l-1.399,-2.213l3.392,0l-0.027,0.028zm0,8.832l0.311,-2.999l2.487,2.533l-2.56,2.743l-0.238,-2.277zm1.308,-9.454l2.258,-2.066c0.787,1.209 1.355,2.636 1.609,4.169l-3.867,-2.103zm-10.679,-0.293l-3.657,0l1.362,-4.983l4.434,1.92l-2.139,3.063zm-4.571,-0.42l-2.469,-2.267c1.038,-1.094 2.33,-1.935 3.783,-2.431l-1.314,4.698zm-0.138,1.582l0.43,4.197l-2.743,3.026l-1.646,-4.91l3.959,-2.313zm0.567,11.693l-0.439,4.571l-3.968,-2.331l1.582,-4.983l2.825,2.743zm4.819,6.281l1.49,2.395l-4.471,1.938l-1.17,-4.334l4.16,0l-0.009,0.001zm4.443,0l3.968,0l-1.371,4.297l-4.215,-1.883l1.618,-2.414zm0.613,-0.914l1.737,-2.587l1.49,-1.591l0.411,3.831l-0.219,0.137l0.238,0.21l-3.657,0zm4.498,-0.914l-0.448,-4.178l2.862,-3.017l1.481,4.791l-3.895,2.404zm4.416,-1.692c-0.183,1.727 -0.707,3.298 -1.503,4.694l-2.465,-2.208l3.968,-2.486zm-1.289,-6.317l0.119,-0.128l-0.119,-0.128l1.362,-4.809s0,0.091 0,0.128l0,9.408l-1.362,-4.471zm-0.915,-11.886l-2.35,2.176l-1.417,-4.855c1.523,0.536 2.79,1.481 3.707,2.704l0.06,-0.025zm-9.398,-1.326l-0.21,-0.201l-0.183,0.256l-3.831,-1.655l7.854,0l-3.63,1.6zm-13.011,18.323l0,-10.057c0.017,-2.441 0.891,-4.674 2.336,-6.417l2.61,2.367l-4.727,2.743l2.048,6.098l-0.119,0.128l0.119,0.11l-1.929,6.098l4.571,2.67l-2.615,2.139l0.576,0.704l2.386,-1.957l0,0.137l0.32,0l1.408,5.202c-3.758,-1.115 -6.985,-5.504 -6.985,-9.966l0.001,0.001zm8.741,10.249c-0.411,-0.006 -0.808,-0.052 -1.192,-0.135l5.068,-2.178l0.183,0.274l0.183,-0.265l4.891,2.194c-0.322,0.071 -0.694,0.114 -1.075,0.119l-8.059,0l0.001,-0.009zm9.6,-0.22l1.673,-5.266l0.366,0l2.24,1.911l0.238,-0.283c-1.017,1.705 -2.587,2.991 -4.459,3.622l-0.058,0.016z"/>
 </g>
</svg>