<svg width="40" height="40" xmlns="http://www.w3.org/2000/svg">
 <title>rap_emerald</title>

 <g>
  <title>background</title>
  <rect fill="none" id="canvas_background" height="602" width="802" y="-1" x="-1"/>
 </g>
 <g>
  <title>Layer 1</title>
  <path transform="null" id="svg_1" d="m30.87465,6.67026l0.053,-0.053l-0.206,-0.206c-0.519,-0.872 -1.226,-1.581 -2.068,-2.088l-0.438,-0.426l-0.13,0.13c-0.722,-0.341 -1.568,-0.54 -2.461,-0.541l-11.002,0c-0.884,0.002 -1.723,0.198 -2.474,0.548l-0.086,-0.137l-0.366,0.366c-0.963,0.547 -1.739,1.323 -2.27,2.256l-0.099,0.113c-0.432,0.799 -0.686,1.749 -0.686,2.758c0,0 0,0 0,0l0,20.137c0.004,3.272 2.656,5.923 5.927,5.928l11.056,0c3.264,-0.004 5.91,-2.643 5.928,-5.903l0,-20.139c0,-1.003 -0.251,-1.948 -0.694,-2.774l0.016,0.031zm-0.084,2.743l0,20.137c-0.002,0.667 -0.13,1.303 -0.363,1.886l-3.447,-3.509c0,-0.053 0,-0.107 0,-0.16l0,-16.602c-0.003,-0.206 -0.025,-0.406 -0.064,-0.599l3.386,-3.363c0.308,0.639 0.488,1.39 0.488,2.183c0,0.009 0,0.019 0,0.028l0,-0.001zm-6.956,20.739l-7.421,0c-0.054,0.004 -0.116,0.007 -0.179,0.007s-0.125,-0.002 -0.187,-0.007l-0.266,-0.274l-0.16,0.16c-0.935,-0.334 -1.593,-1.212 -1.593,-2.244c0,-0.012 0,-0.024 0,-0.036l0,-16.592c0,-1.317 1.068,-2.385 2.385,-2.385l7.421,0c0,0 0,0 0,0c1.317,0 2.385,1.068 2.385,2.385l0,16.564c-0.003,0.15 -0.02,0.294 -0.048,0.434l0.003,-0.015c-0.193,1.135 -1.165,1.989 -2.338,1.996l-0.002,0.007zm6.095,-23.619l-3.269,3.269c-0.367,-0.706 -0.973,-1.245 -1.708,-1.517l3.285,-3.314c0.68,0.402 1.243,0.931 1.672,1.559l0.02,0.003zm-15.291,-2.285l10.987,0c0.678,0 1.324,0.132 1.916,0.37l-3.509,3.462l-7.619,0c-0.099,0 -0.19,0 -0.282,0l0.091,-0.099l-3.444,-3.39c0.546,-0.219 1.18,-0.348 1.843,-0.35l0.017,0.007zm-2.583,0.7l3.345,3.299c-0.784,0.276 -1.412,0.832 -1.775,1.544l-3.277,-3.251c0.443,-0.656 1.011,-1.193 1.675,-1.587l0.032,-0.005zm1.28,5.654c-0.038,0.167 -0.062,0.361 -0.068,0.559l0,16.569c0,0.069 0,0.137 0,0.206l-3.467,3.467c-0.227,-0.558 -0.358,-1.206 -0.358,-1.884c0,-0.002 0,-0.004 0,-0.006l0,-20.099c0.001,-0.797 0.183,-1.552 0.509,-2.225l3.384,3.413zm-3.154,21.569l3.299,-3.299c0.29,0.759 0.842,1.364 1.544,1.714l-3.281,3.269c-0.643,-0.443 -1.17,-1.009 -1.556,-1.667l-0.006,-0.017zm4.449,2.56c-0.786,0 -1.53,-0.177 -2.195,-0.493l3.414,-3.37c0.168,0.035 0.362,0.057 0.561,0.061l7.424,0c0.216,0 0.427,-0.023 0.63,-0.064l3.355,3.379c-0.643,0.313 -1.4,0.495 -2.199,0.495c-0.001,0 -0.002,0 -0.004,0l-10.994,0l0.008,-0.008zm13.875,-0.899l-3.276,-3.269c0.708,-0.37 1.248,-0.982 1.517,-1.723l3.314,3.285c-0.394,0.687 -0.916,1.258 -1.538,1.696l-0.017,0.011z"/>
 </g>
</svg>